<?xml version="1.0" encoding="UTF-8"?>
<svg id="Layer_2" data-name="Layer 2" xmlns="http://www.w3.org/2000/svg" viewBox="0 0 138.34 231.56">
  <defs>
    <style>
      .cls-1 {
        fill: #fff;
      }
    </style>
  </defs>
  <g id="Layer_2-2" data-name="Layer 2">
    <path class="cls-1" d="m138.21,33.09c-.47-1.64-1.99-2.52-2.28-2.67l-1.03-.55c-2.92-1.57-6.37-3.78-10.02-6.11-3.96-2.54-8.05-5.16-11.95-7.26-3.09-1.67-6.43-3.27-9.94-3.62-1.84-.19-3.68-.28-5.47-.37.13-.04.26-.07.39-.11.61-.17,1.29-.25,2.07-.25,1.25,0,2.59.21,3.85.44,6.89,1.23,15.03,2.69,21.05,3.78l1,.18c.27.05.69.11,1.14.11,1.97,0,3.03-1.19,3.38-2.3l.1-.42.83-4.59c.17-.88-.01-1.78-.52-2.54-.73-1.07-1.95-1.63-2.86-1.79l-1.01-.18c-6.21-1.14-15.24-2.82-22.59-4.19-1.82-.34-3.78-.65-5.81-.65-1.42,0-2.68.15-3.89.46-.87.23-1.75.42-2.64.62-.99.22-1.98.44-2.99.71-2.19.57-5.41.59-8.83.62-4.17.03-8.91.06-13.04,1.15-4.25,1.11-8.87,6.17-10.44,8.44l-.09.13c-.13.18-.29.4-.45.65-.31.51-1.15,1.86-.68,3.56l.64,2.29h-1.67c-.6-.38-1.43-.65-2.59-.65-.17,0-.66.01-.66.01-5.73.1-10.34.45-14.53,1.11-9.14,1.45-16.67,4.58-22.38,9.3-6.9,5.7-11.5,14.36-13.31,25.04-.19,1.1-.34,2.21-.47,3.3-.46,4-.61,8.2-.46,12.83.16,4.74.55,8.85,1.2,12.56,1.26,7.27,3.72,14.83,7.49,23.13,2.39,5.25,5.13,10.39,7.78,15.36,1.13,2.1,2.25,4.21,3.35,6.32,1.6,3.09,3.45,6.78,4.95,10.63,1.63,4.22,2.43,7.65,2.52,10.79.02.63.01,1.27-.02,1.87-.01.11-.02.21-.03.32-.57.42-1.13,1.09-1.57,2.15-.23.55-.41,1.11-.52,1.49-2,6.83-4.92,13.65-7.74,20.23-2.78,6.51-5.66,13.23-7.74,20.13l-.25.81c-.17.6-.34,1.19-.5,1.8-.26.98-.1,1.98.4,2.8.71,1.63,3.03,3.06,9.46,4.92,3.6,1.04,8.9,2.26,11.97,2.26.71,0,1.55-.06,2.35-.37,1-.27,2.05-1.05,2.44-2.61.15-.6.3-1.2.44-1.8l.19-.83c.27-1.19.52-2.4.75-3.61v25.52c0,1.63.54,2.79,1.61,3.47.64.44,1.59.95,3.59,1.46.49.12,1.03.25,1.61.37,2.45.52,5.7,1.04,9.39,1.51,3.86.48,7.05.8,10.06,1.02,2.77.19,5.31.29,7.77.29,3.35,0,6.89-.17,10.81-.51,2.18-.2,4.48-.44,7.02-.75,1.73-.21,3.38-.44,4.89-.68,1.76-.28,3.33-.57,4.64-.87.63-.14,1.2-.28,1.71-.42,1.52-.43,4.69-1.32,4.69-4.21V70.11c0-3.85-.71-7.54-2.1-10.98-.43-1.04-.91-2.06-1.45-3.02-1.25-2.24-2.81-4.29-4.64-6.1-1.7-1.67-3.64-3.15-5.76-4.38-2.33-1.35-4.91-2.43-7.68-3.22-.18-.05-.37-.1-.55-.15v-6.53l1.74-1.74c0-.54-.11-1.06-.34-1.58-.33-.75-.83-1.29-1.38-1.86-.01-.01-.01-.02-.02-.02v-6.77l.88.06c2.88.2,5.71.42,8.29.62,1.48.12,2.88.23,4.16.32,1.04.08,2.06.19,3.07.29,1.18.13,2.36.25,3.48.33,2.16.19,4.48,1.34,6.49,2.41,6.92,3.69,15.11,8.05,21.17,11.28l1,.53c1.34.72,2.17.72,2.44.72,1.07,0,2.03-.48,2.63-1.32l.24-.4.29-.53c.24-.44.37-.73.47-1.06.02-.04.36-.68.39-.73l.32-.61c.45-.78.55-1.7.3-2.58Zm-2.9,1.09c-.05.09-.19.34-.24.44-.24.43-.1.19-.33.63-.04.07-.08.14-.12.22-.41.78-.12.41-.53,1.19-.09.17-.09.15-.18.32-.06.12-.08.15-.15.27-.15.21-.85-.1-1.22-.29-.32-.18-.66-.35-1-.54-6.05-3.23-14.25-7.59-21.17-11.28-2.44-1.29-4.98-2.51-7.63-2.75-2.2-.15-4.35-.45-6.6-.62-3.51-.26-7.91-.62-12.46-.94-.44-.04-.89-.07-1.33-.1-.92-.06-1.84-.13-2.76-.19v10.75c0,.47.48.94.93,1.41.3.31.59.62.73.93.05.12.08.24.08.36h-1.74v10.65c.94.19,1.85.41,2.73.66,2.6.73,4.93,1.72,6.99,2.92,1.96,1.14,3.67,2.46,5.16,3.93,1.66,1.64,3.04,3.46,4.13,5.42.48.87.91,1.77,1.29,2.69,1.26,3.1,1.88,6.45,1.88,9.85v154.01c0,.43-.93.88-2.5,1.32-.46.13-.99.26-1.56.39-1.27.28-2.78.56-4.45.83-1.5.23-3.11.46-4.79.66-2.3.28-4.61.53-6.92.74-3.5.31-7.02.5-10.54.5-2.52,0-5.04-.11-7.56-.28-3.31-.24-6.61-.6-9.89-1.01-3.48-.44-6.71-.94-9.15-1.46-.54-.12-1.04-.23-1.5-.35-1.83-.46-2.4-.86-2.68-1.06-.25-.14-.25-.73-.25-.96v-67.06c0,.16-.02.33-.04.51-.05.43-.15.88-.23,1.2-3.27,13.96-3.25,28.79-6.4,42.78-.03.14-.06.27-.09.4-.04.14-.07.27-.1.4-.13.59-.28,1.17-.42,1.74-.05.18-.14.53-.43.46-1.87,1.44-20.13-3.32-20.16-5.31-.27-.15-.28-.45-.24-.63.16-.57.32-1.15.49-1.72.04-.14.08-.27.12-.4s.08-.26.12-.39c4.15-13.73,11.46-26.63,15.49-40.39.09-.31.23-.76.4-1.16.24-.56.54-1.04.87-.96.21.06.41.11.62.16.17-.86.28-1.75.34-2.64.04-.71.06-1.43.03-2.15-.12-4.06-1.27-8.02-2.72-11.79-1.46-3.74-3.24-7.36-5.09-10.93-3.72-7.16-7.71-14.19-11.06-21.55-3.26-7.15-5.91-14.62-7.27-22.39-.7-4.01-1.02-8.08-1.15-12.14-.14-4.14-.04-8.29.44-12.4.12-1.05.27-2.09.45-3.14,1.49-8.85,5.21-17.41,12.26-23.23,5.96-4.92,13.39-7.45,20.94-8.64,4.66-.74,9.4-1,14.12-1.08.57-.01,1.66-.09,1.68.36v.28h9.21v-2.06c-.44.13-.88.25-1.32.37-.18.05-.36.11-.54.16-.2.05-.6.18-.71-.23-.03-.11-.04-.13-.07-.25-.04-.16-.01-.02-.05-.18-.2-.74-.41-1.47-.62-2.21-.01-.07-.03-.14-.05-.2-.12-.42-.23-.83-.35-1.24-.02-.1-.05-.19-.08-.28-.1-.39.16-.83.35-1.15.16-.25.34-.49.45-.65,1.72-2.48,5.79-6.48,8.74-7.25,7.08-1.86,16.41-.34,21.87-1.77,1.92-.5,3.79-.85,5.63-1.33,2.71-.69,5.71-.26,8.39.24,7.35,1.37,16.39,3.05,22.6,4.19.35.06.69.12,1.02.18.37.07,1.05.42.97.8-.02.11-.08.38-.1.49-.08.49-.03.21-.12.7-.01.08-.03.16-.04.24-.16.87-.32,1.74-.47,2.61-.04.19-.04.17-.07.36-.03.14-.03.17-.06.31-.08.25-.75.18-1.12.12-.33-.06-.66-.12-1-.18-6.02-1.09-14.16-2.55-21.05-3.79-2.42-.43-4.91-.76-7.24-.13-1.93.57-3.85,1-5.81,1.58-2.58.76-5.71,1.68-8.99,2.64.02.01.05.01.07.01,2.54.41,5.05.84,7.4,1.17,4.29.6,8.6.54,12.91.96,3.06.31,6.11,1.82,8.8,3.28,7.38,3.98,15.75,10.03,21.99,13.37.35.19.69.37,1.02.55.38.2.99.78.8,1.12Zm-82.28-4.21v.1c0,.21-1.06.22-1.58.23-4.33.07-8.7.29-12.99.99-6.83,1.12-13.74,3.54-18.54,8.75-5.66,6.12-7.2,14.89-7.54,22.93-.33,8.18.42,16.48,2.72,24.35,2.2,7.55,5.58,14.71,9.21,21.67,3.42,6.55,7.1,12.97,10.14,19.71,2.89,6.41,5.53,13.28,5.53,20.37v-78.96c0-3.89.84-7.67,2.5-11.08.41-.86.87-1.68,1.39-2.49,2.31-3.62,5.65-6.72,9.95-8.95,2.47-1.28,5.25-2.27,8.34-2.91v-10.69h-1.74c0-.12.03-.24.08-.36.14-.31.43-.62.73-.93.45-.47.93-.94.93-1.41v-1.32h-9.13Zm6.13,5.76v6.59c-2.39.66-4.64,1.53-6.72,2.61-4.67,2.42-8.41,5.78-11.1,10-.57.89-1.1,1.83-1.56,2.79-1.86,3.83-2.8,8-2.8,12.39v56.9c-2.16-4.71-4.62-9.31-7.01-13.76-1.01-1.87-2.02-3.75-3-5.64-3.17-6.08-6.72-13.34-8.99-21.13-2.07-7.11-2.95-14.97-2.6-23.38.41-9.81,2.55-16.49,6.74-21.03,3.71-4.02,9.21-6.58,16.82-7.82,3.54-.57,7.41-.87,12.59-.95.91-.01,1.68-.12,2.31-.33h3.72c-.1.34-.14.68-.14,1.02l1.74,1.74Zm-20.17,119.72c.22.06.44.11.66.17.24.06.33.37.33.76v-4.38c-.11,1.19-.73,2.29-.99,3.45Z"/>
  </g>
</svg>