<?xml version="1.0" encoding="UTF-8"?>
<svg id="Layer_2" data-name="Layer 2" xmlns="http://www.w3.org/2000/svg" viewBox="0 0 132.34 225.56">
  <defs>
    <style>
      .cls-1 {
        fill: #fff;
      }
    </style>
  </defs>
  <g id="Layer_2-2" data-name="Layer 2">
    <path class="cls-1" d="m131.51,30.06c-.33-.18-.67-.36-1.02-.55-6.24-3.34-14.6-9.39-21.98-13.38-2.69-1.45-5.74-2.96-8.81-3.27-4.31-.42-8.62-.36-12.91-.96-2.34-.33-4.86-.76-7.4-1.17-.02,0-.04,0-.07-.01,3.28-.96,6.41-1.88,8.99-2.64,1.96-.58,3.88-1.01,5.81-1.58,2.33-.63,4.82-.3,7.24.13,6.88,1.23,15.03,2.7,21.05,3.78.34.06.67.12,1,.18.37.07,1.04.13,1.12-.12.03-.14.04-.17.06-.31.03-.19.03-.17.07-.36.16-.87.32-1.74.47-2.61.01-.08.03-.16.04-.24.09-.49.03-.21.12-.7.02-.11.07-.38.09-.49.08-.38-.59-.73-.97-.79-.33-.06-.67-.12-1.02-.19-6.21-1.13-15.25-2.81-22.6-4.19-2.68-.5-5.68-.94-8.39-.24-1.83.48-3.7.82-5.63,1.33-5.45,1.43-14.79-.09-21.87,1.77-2.95.77-7.03,4.77-8.74,7.25-.12.17-.29.4-.45.66-.2.32-.46.75-.35,1.15.03.09.05.18.08.28.11.41.23.83.35,1.24.02.07.04.14.06.21.2.74.41,1.47.62,2.2.04.16,0,.03.05.19.03.11.04.13.07.25.11.41.51.28.71.22.18-.05.36-.1.55-.15.44-.12.88-.25,1.32-.37v2.05h-9.21c0-.08,0-.17,0-.28-.02-.45-1.11-.37-1.68-.36-4.72.08-9.46.34-14.12,1.08-7.55,1.19-14.98,3.72-20.94,8.65-7.05,5.82-10.76,14.38-12.26,23.23-.18,1.05-.33,2.09-.45,3.14C.02,58.19-.08,62.34.06,66.48c.13,4.06.45,8.13,1.15,12.14,1.36,7.77,4.01,15.24,7.27,22.4,3.35,7.35,7.34,14.38,11.06,21.55,1.85,3.57,3.63,7.18,5.08,10.93,1.45,3.76,2.6,7.73,2.73,11.78.02.72,0,1.45-.04,2.16-.06.89-.17,1.77-.34,2.64-.2-.05-.41-.11-.61-.16-.33-.09-.63.39-.87.96-.17.4-.31.84-.4,1.16-4.03,13.76-11.34,26.66-15.5,40.39-.04.13-.08.26-.12.39-.04.13-.08.26-.12.4-.17.57-.33,1.15-.49,1.73-.05.18-.03.47.24.63.03,1.99,18.29,6.75,20.15,5.31.29.08.39-.28.43-.45.15-.58.29-1.16.43-1.74.03-.13.06-.27.09-.4.03-.13.06-.27.09-.4,3.15-13.99,3.14-28.82,6.41-42.78.07-.32.18-.77.23-1.2.07-.61.05-1.18-.29-1.27-.22-.06-.44-.11-.66-.17.25-1.16.87-2.26.98-3.45v71.44c0,.23,0,.82.26.96.28.2.85.6,2.68,1.06.46.12.96.23,1.5.35,2.44.52,5.67,1.03,9.15,1.46,3.28.41,6.59.77,9.89,1.01,2.52.18,5.04.28,7.56.28,3.52,0,7.03-.19,10.54-.5,2.31-.2,4.62-.46,6.92-.74,1.68-.2,3.29-.43,4.79-.66,1.67-.26,3.18-.54,4.46-.83.57-.13,1.09-.26,1.55-.39,1.57-.44,2.5-.89,2.5-1.31V67.11c0-3.41-.62-6.75-1.88-9.85-.37-.92-.8-1.82-1.29-2.69-1.09-1.96-2.46-3.78-4.13-5.42-1.49-1.47-3.21-2.79-5.16-3.92-2.07-1.2-4.39-2.19-6.99-2.93-.88-.25-1.79-.47-2.74-.66v-10.65h1.74c0-.12-.03-.24-.08-.36-.14-.31-.43-.62-.73-.93-.45-.47-.93-.94-.93-1.41v-10.75c.92.06,1.84.12,2.76.19.45.03.89.06,1.34.09,4.54.33,8.94.68,12.46.95,2.24.17,4.4.47,6.6.62,2.65.24,5.19,1.46,7.62,2.75,6.93,3.68,15.12,8.05,21.18,11.28.34.18.67.36,1,.53.37.2,1.07.5,1.22.29.06-.12.08-.15.15-.27.09-.17.08-.15.17-.32.42-.78.12-.41.54-1.19.04-.07.08-.15.12-.22.23-.44.09-.19.33-.63.05-.1.19-.34.24-.44.19-.34-.42-.92-.8-1.12Zm-72.35-2.75v.98c0,.47-.48.94-.93,1.41-.3.31-.59.62-.73.93-.05.12-.08.24-.08.36h1.74v10.69c-3.09.65-5.87,1.64-8.34,2.91-4.3,2.23-7.64,5.33-9.95,8.95-.51.8-.98,1.63-1.39,2.49-1.66,3.41-2.5,7.19-2.5,11.09v79.28c.08-7.21-2.6-14.19-5.53-20.69-3.04-6.74-6.72-13.16-10.14-19.71-3.63-6.96-7-14.12-9.21-21.68-2.29-7.87-3.05-16.17-2.72-24.35.34-8.04,1.88-16.81,7.53-22.93,4.8-5.21,11.71-7.63,18.54-8.74,4.29-.7,8.66-.92,12.99-.99.53,0,1.58-.02,1.58-.24v-.09h9.13v.34Z"/>
  </g>
</svg>